<?xml version="1.0" encoding="UTF-8" standalone="no"?>
<!DOCTYPE svg PUBLIC "-//W3C//DTD SVG 1.1//EN"
 "http://www.w3.org/Graphics/SVG/1.1/DTD/svg11.dtd">
<!-- Generated by graphviz version 2.43.0 (0)
 -->
<!-- Title: mygraph Pages: 1 -->
<svg width="389pt" height="260pt"
 viewBox="0.00 0.00 389.00 260.00" xmlns="http://www.w3.org/2000/svg" xmlns:xlink="http://www.w3.org/1999/xlink">
<g id="graph0" class="graph" transform="scale(1 1) rotate(0) translate(4 256)">
<title>mygraph</title>
<polygon fill="white" stroke="transparent" points="-4,4 -4,-256 385,-256 385,4 -4,4"/>
<!-- //example:example -->
<g id="node1" class="node">
<title>//example:example</title>
<polygon fill="none" stroke="black" points="261.5,-252 111.5,-252 111.5,-216 261.5,-216 261.5,-252"/>
<text text-anchor="middle" x="186.5" y="-230.3" font-family="Times,serif" font-size="14.00">//example:example</text>
</g>
<!-- //example:example.md -->
<g id="node2" class="node">
<title>//example:example.md</title>
<polygon fill="none" stroke="black" points="177,-180 0,-180 0,-144 177,-144 177,-180"/>
<text text-anchor="middle" x="88.5" y="-158.3" font-family="Times,serif" font-size="14.00">//example:example.md</text>
</g>
<!-- //example:example&#45;&gt;//example:example.md -->
<g id="edge1" class="edge">
<title>//example:example&#45;&gt;//example:example.md</title>
<path fill="none" stroke="black" d="M162.53,-215.88C149.95,-206.89 134.37,-195.76 120.75,-186.03"/>
<polygon fill="black" stroke="black" points="122.74,-183.15 112.57,-180.19 118.67,-188.85 122.74,-183.15"/>
</g>
<!-- //example:example.svg -->
<g id="node3" class="node">
<title>//example:example.svg</title>
<polygon fill="none" stroke="black" points="374,-180 195,-180 195,-144 374,-144 374,-180"/>
<text text-anchor="middle" x="284.5" y="-158.3" font-family="Times,serif" font-size="14.00">//example:example.svg</text>
</g>
<!-- //example:example&#45;&gt;//example:example.svg -->
<g id="edge2" class="edge">
<title>//example:example&#45;&gt;//example:example.svg</title>
<path fill="none" stroke="black" d="M210.47,-215.88C223.05,-206.89 238.63,-195.76 252.25,-186.03"/>
<polygon fill="black" stroke="black" points="254.33,-188.85 260.43,-180.19 250.26,-183.15 254.33,-188.85"/>
</g>
<!-- //example:example_puml -->
<g id="node4" class="node">
<title>//example:example_puml</title>
<polygon fill="none" stroke="black" points="381,-108 188,-108 188,-72 381,-72 381,-108"/>
<text text-anchor="middle" x="284.5" y="-86.3" font-family="Times,serif" font-size="14.00">//example:example_puml</text>
</g>
<!-- //example:example.svg&#45;&gt;//example:example_puml -->
<g id="edge3" class="edge">
<title>//example:example.svg&#45;&gt;//example:example_puml</title>
<path fill="none" stroke="black" d="M284.5,-143.7C284.5,-135.98 284.5,-126.71 284.5,-118.11"/>
<polygon fill="black" stroke="black" points="288,-118.1 284.5,-108.1 281,-118.1 288,-118.1"/>
</g>
<!-- //example:example.puml -->
<g id="node5" class="node">
<title>//example:example.puml</title>
<polygon fill="none" stroke="black" points="380,-36 189,-36 189,0 380,0 380,-36"/>
<text text-anchor="middle" x="284.5" y="-14.3" font-family="Times,serif" font-size="14.00">//example:example.puml</text>
</g>
<!-- //example:example_puml&#45;&gt;//example:example.puml -->
<g id="edge4" class="edge">
<title>//example:example_puml&#45;&gt;//example:example.puml</title>
<path fill="none" stroke="black" d="M284.5,-71.7C284.5,-63.98 284.5,-54.71 284.5,-46.11"/>
<polygon fill="black" stroke="black" points="288,-46.1 284.5,-36.1 281,-46.1 288,-46.1"/>
</g>
</g>
</svg>
