<?xml version="1.0" encoding="UTF-8" standalone="no"?>
<!DOCTYPE svg PUBLIC "-//W3C//DTD SVG 1.1//EN"
 "http://www.w3.org/Graphics/SVG/1.1/DTD/svg11.dtd">
<!-- Generated by graphviz version 2.43.0 (0)
 -->
<!-- Title: mygraph Pages: 1 -->
<svg width="389pt" height="277pt"
 viewBox="0.00 0.00 389.00 277.00" xmlns="http://www.w3.org/2000/svg" xmlns:xlink="http://www.w3.org/1999/xlink">
<g id="graph0" class="graph" transform="scale(1 1) rotate(0) translate(4 273)">
<title>mygraph</title>
<polygon fill="white" stroke="transparent" points="-4,4 -4,-273 385,-273 385,4 -4,4"/>
<!-- //example:example -->
<g id="node1" class="node">
<title>//example:example</title>
<polygon fill="none" stroke="black" points="261.5,-269 111.5,-269 111.5,-233 261.5,-233 261.5,-269"/>
<text text-anchor="middle" x="186.5" y="-247.3" font-family="Times,serif" font-size="14.00">//example:example</text>
</g>
<!-- //example:default.js\n//example:example.md\n//example:default.css -->
<g id="node2" class="node">
<title>//example:default.js\n//example:example.md\n//example:default.css</title>
<polygon fill="none" stroke="black" points="177,-197 0,-197 0,-144 177,-144 177,-197"/>
<text text-anchor="middle" x="88.5" y="-181.8" font-family="Times,serif" font-size="14.00">//example:default.js</text>
<text text-anchor="middle" x="88.5" y="-166.8" font-family="Times,serif" font-size="14.00">//example:example.md</text>
<text text-anchor="middle" x="88.5" y="-151.8" font-family="Times,serif" font-size="14.00">//example:default.css</text>
</g>
<!-- //example:example&#45;&gt;//example:default.js\n//example:example.md\n//example:default.css -->
<g id="edge1" class="edge">
<title>//example:example&#45;&gt;//example:default.js\n//example:example.md\n//example:default.css</title>
<path fill="none" stroke="black" d="M165.24,-232.97C154.52,-224.38 141.17,-213.69 128.62,-203.64"/>
<polygon fill="black" stroke="black" points="130.52,-200.68 120.53,-197.16 126.15,-206.14 130.52,-200.68"/>
</g>
<!-- //example:example.svg -->
<g id="node3" class="node">
<title>//example:example.svg</title>
<polygon fill="none" stroke="black" points="374,-188.5 195,-188.5 195,-152.5 374,-152.5 374,-188.5"/>
<text text-anchor="middle" x="284.5" y="-166.8" font-family="Times,serif" font-size="14.00">//example:example.svg</text>
</g>
<!-- //example:example&#45;&gt;//example:example.svg -->
<g id="edge2" class="edge">
<title>//example:example&#45;&gt;//example:example.svg</title>
<path fill="none" stroke="black" d="M207.76,-232.97C221.63,-221.86 239.92,-207.21 255.17,-195"/>
<polygon fill="black" stroke="black" points="257.66,-197.48 263.28,-188.5 253.28,-192.02 257.66,-197.48"/>
</g>
<!-- //example:example_puml -->
<g id="node4" class="node">
<title>//example:example_puml</title>
<polygon fill="none" stroke="black" points="381,-108 188,-108 188,-72 381,-72 381,-108"/>
<text text-anchor="middle" x="284.5" y="-86.3" font-family="Times,serif" font-size="14.00">//example:example_puml</text>
</g>
<!-- //example:example.svg&#45;&gt;//example:example_puml -->
<g id="edge3" class="edge">
<title>//example:example.svg&#45;&gt;//example:example_puml</title>
<path fill="none" stroke="black" d="M284.5,-152.47C284.5,-142.49 284.5,-129.65 284.5,-118.3"/>
<polygon fill="black" stroke="black" points="288,-118 284.5,-108 281,-118 288,-118"/>
</g>
<!-- //example:example.puml -->
<g id="node5" class="node">
<title>//example:example.puml</title>
<polygon fill="none" stroke="black" points="380,-36 189,-36 189,0 380,0 380,-36"/>
<text text-anchor="middle" x="284.5" y="-14.3" font-family="Times,serif" font-size="14.00">//example:example.puml</text>
</g>
<!-- //example:example_puml&#45;&gt;//example:example.puml -->
<g id="edge4" class="edge">
<title>//example:example_puml&#45;&gt;//example:example.puml</title>
<path fill="none" stroke="black" d="M284.5,-71.7C284.5,-63.98 284.5,-54.71 284.5,-46.11"/>
<polygon fill="black" stroke="black" points="288,-46.1 284.5,-36.1 281,-46.1 288,-46.1"/>
</g>
</g>
</svg>
