<?xml version="1.0" encoding="UTF-8" standalone="no"?>
<!DOCTYPE svg PUBLIC "-//W3C//DTD SVG 1.1//EN"
 "http://www.w3.org/Graphics/SVG/1.1/DTD/svg11.dtd">
<!-- Generated by graphviz version 2.43.0 (0)
 -->
<!-- Title: mygraph Pages: 1 -->
<svg width="366pt" height="260pt"
 viewBox="0.00 0.00 365.50 260.00" xmlns="http://www.w3.org/2000/svg" xmlns:xlink="http://www.w3.org/1999/xlink">
<g id="graph0" class="graph" transform="scale(1 1) rotate(0) translate(4 256)">
<title>mygraph</title>
<polygon fill="white" stroke="transparent" points="-4,4 -4,-256 361.5,-256 361.5,4 -4,4"/>
<!-- //:example -->
<g id="node1" class="node">
<title>//:example</title>
<polygon fill="none" stroke="black" points="220,-252 130,-252 130,-216 220,-216 220,-252"/>
<text text-anchor="middle" x="175" y="-230.3" font-family="Times,serif" font-size="14.00">//:example</text>
</g>
<!-- //:example/example.md -->
<g id="node2" class="node">
<title>//:example/example.md</title>
<polygon fill="none" stroke="black" points="182,-180 0,-180 0,-144 182,-144 182,-180"/>
<text text-anchor="middle" x="91" y="-158.3" font-family="Times,serif" font-size="14.00">//:example/example.md</text>
</g>
<!-- //:example&#45;&gt;//:example/example.md -->
<g id="edge1" class="edge">
<title>//:example&#45;&gt;//:example/example.md</title>
<path fill="none" stroke="black" d="M154.24,-215.7C143.76,-206.97 130.89,-196.24 119.5,-186.75"/>
<polygon fill="black" stroke="black" points="121.45,-183.82 111.53,-180.1 116.97,-189.19 121.45,-183.82"/>
</g>
<!-- //:example.svg -->
<g id="node3" class="node">
<title>//:example.svg</title>
<polygon fill="none" stroke="black" points="319.5,-180 200.5,-180 200.5,-144 319.5,-144 319.5,-180"/>
<text text-anchor="middle" x="260" y="-158.3" font-family="Times,serif" font-size="14.00">//:example.svg</text>
</g>
<!-- //:example&#45;&gt;//:example.svg -->
<g id="edge2" class="edge">
<title>//:example&#45;&gt;//:example.svg</title>
<path fill="none" stroke="black" d="M196.01,-215.7C206.72,-206.88 219.89,-196.03 231.5,-186.47"/>
<polygon fill="black" stroke="black" points="233.74,-189.16 239.23,-180.1 229.29,-183.76 233.74,-189.16"/>
</g>
<!-- //:example_puml -->
<g id="node4" class="node">
<title>//:example_puml</title>
<polygon fill="none" stroke="black" points="326.5,-108 193.5,-108 193.5,-72 326.5,-72 326.5,-108"/>
<text text-anchor="middle" x="260" y="-86.3" font-family="Times,serif" font-size="14.00">//:example_puml</text>
</g>
<!-- //:example.svg&#45;&gt;//:example_puml -->
<g id="edge3" class="edge">
<title>//:example.svg&#45;&gt;//:example_puml</title>
<path fill="none" stroke="black" d="M260,-143.7C260,-135.98 260,-126.71 260,-118.11"/>
<polygon fill="black" stroke="black" points="263.5,-118.1 260,-108.1 256.5,-118.1 263.5,-118.1"/>
</g>
<!-- //:example/example.puml -->
<g id="node5" class="node">
<title>//:example/example.puml</title>
<polygon fill="none" stroke="black" points="357.5,-36 162.5,-36 162.5,0 357.5,0 357.5,-36"/>
<text text-anchor="middle" x="260" y="-14.3" font-family="Times,serif" font-size="14.00">//:example/example.puml</text>
</g>
<!-- //:example_puml&#45;&gt;//:example/example.puml -->
<g id="edge4" class="edge">
<title>//:example_puml&#45;&gt;//:example/example.puml</title>
<path fill="none" stroke="black" d="M260,-71.7C260,-63.98 260,-54.71 260,-46.11"/>
<polygon fill="black" stroke="black" points="263.5,-46.1 260,-36.1 256.5,-46.1 263.5,-46.1"/>
</g>
</g>
</svg>
