<?xml version="1.0" encoding="UTF-8" standalone="no"?>
<!DOCTYPE svg PUBLIC "-//W3C//DTD SVG 1.1//EN"
 "http://www.w3.org/Graphics/SVG/1.1/DTD/svg11.dtd">
<!-- Generated by graphviz version 2.43.0 (0)
 -->
<!-- Title: mygraph Pages: 1 -->
<svg width="407pt" height="292pt"
 viewBox="0.00 0.00 406.50 292.00" xmlns="http://www.w3.org/2000/svg" xmlns:xlink="http://www.w3.org/1999/xlink">
<g id="graph0" class="graph" transform="scale(1 1) rotate(0) translate(4 288)">
<title>mygraph</title>
<polygon fill="white" stroke="transparent" points="-4,4 -4,-288 402.5,-288 402.5,4 -4,4"/>
<!-- //example:example -->
<g id="node1" class="node">
<title>//example:example</title>
<polygon fill="none" stroke="black" points="274,-284 124,-284 124,-248 274,-248 274,-284"/>
<text text-anchor="middle" x="199" y="-262.3" font-family="Times,serif" font-size="14.00">//example:example</text>
</g>
<!-- //example:default.css\n//example:default.js\n//example:code_block.css\n//example:example.md -->
<g id="node2" class="node">
<title>//example:default.css\n//example:default.js\n//example:code_block.css\n//example:example.md</title>
<polygon fill="none" stroke="black" points="194,-212 0,-212 0,-144 194,-144 194,-212"/>
<text text-anchor="middle" x="97" y="-196.8" font-family="Times,serif" font-size="14.00">//example:default.css</text>
<text text-anchor="middle" x="97" y="-181.8" font-family="Times,serif" font-size="14.00">//example:default.js</text>
<text text-anchor="middle" x="97" y="-166.8" font-family="Times,serif" font-size="14.00">//example:code_block.css</text>
<text text-anchor="middle" x="97" y="-151.8" font-family="Times,serif" font-size="14.00">//example:example.md</text>
</g>
<!-- //example:example&#45;&gt;//example:default.css\n//example:default.js\n//example:code_block.css\n//example:example.md -->
<g id="edge1" class="edge">
<title>//example:example&#45;&gt;//example:default.css\n//example:default.js\n//example:code_block.css\n//example:example.md</title>
<path fill="none" stroke="black" d="M178.36,-247.6C168.43,-239.22 156.08,-228.81 144.03,-218.65"/>
<polygon fill="black" stroke="black" points="146.08,-215.8 136.18,-212.03 141.57,-221.16 146.08,-215.8"/>
</g>
<!-- //example:example.svg -->
<g id="node3" class="node">
<title>//example:example.svg</title>
<polygon fill="none" stroke="black" points="391.5,-196 212.5,-196 212.5,-160 391.5,-160 391.5,-196"/>
<text text-anchor="middle" x="302" y="-174.3" font-family="Times,serif" font-size="14.00">//example:example.svg</text>
</g>
<!-- //example:example&#45;&gt;//example:example.svg -->
<g id="edge2" class="edge">
<title>//example:example&#45;&gt;//example:example.svg</title>
<path fill="none" stroke="black" d="M219.84,-247.6C235.3,-234.69 256.55,-216.95 273.57,-202.74"/>
<polygon fill="black" stroke="black" points="276.11,-205.18 281.54,-196.08 271.62,-199.81 276.11,-205.18"/>
</g>
<!-- //example:example_puml -->
<g id="node4" class="node">
<title>//example:example_puml</title>
<polygon fill="none" stroke="black" points="398.5,-108 205.5,-108 205.5,-72 398.5,-72 398.5,-108"/>
<text text-anchor="middle" x="302" y="-86.3" font-family="Times,serif" font-size="14.00">//example:example_puml</text>
</g>
<!-- //example:example.svg&#45;&gt;//example:example_puml -->
<g id="edge3" class="edge">
<title>//example:example.svg&#45;&gt;//example:example_puml</title>
<path fill="none" stroke="black" d="M302,-159.6C302,-147.75 302,-131.82 302,-118.29"/>
<polygon fill="black" stroke="black" points="305.5,-118.08 302,-108.08 298.5,-118.08 305.5,-118.08"/>
</g>
<!-- //example:example.puml -->
<g id="node5" class="node">
<title>//example:example.puml</title>
<polygon fill="none" stroke="black" points="397.5,-36 206.5,-36 206.5,0 397.5,0 397.5,-36"/>
<text text-anchor="middle" x="302" y="-14.3" font-family="Times,serif" font-size="14.00">//example:example.puml</text>
</g>
<!-- //example:example_puml&#45;&gt;//example:example.puml -->
<g id="edge4" class="edge">
<title>//example:example_puml&#45;&gt;//example:example.puml</title>
<path fill="none" stroke="black" d="M302,-71.7C302,-63.98 302,-54.71 302,-46.11"/>
<polygon fill="black" stroke="black" points="305.5,-46.1 302,-36.1 298.5,-46.1 305.5,-46.1"/>
</g>
</g>
</svg>
