<?xml version="1.0" encoding="UTF-8" standalone="no"?><svg xmlns="http://www.w3.org/2000/svg" xmlns:xlink="http://www.w3.org/1999/xlink" contentScriptType="application/ecmascript" contentStyleType="text/css" height="337px" preserveAspectRatio="none" style="width:240px;height:337px;" version="1.1" viewBox="0 0 240 337" width="240px" zoomAndPan="magnify"><defs><filter height="300%" id="f18d33cqhd1muv" width="300%" x="-1" y="-1"><feGaussianBlur result="blurOut" stdDeviation="2.0"/><feColorMatrix in="blurOut" result="blurOut2" type="matrix" values="0 0 0 0 0 0 0 0 0 0 0 0 0 0 0 0 0 0 .4 0"/><feOffset dx="4.0" dy="4.0" in="blurOut2" result="blurOut3"/><feBlend in="SourceGraphic" in2="blurOut3" mode="normal"/></filter></defs><g><!--MD5=[97ab183161fd5d1db7fba7485cf76add]
entity Admin--><ellipse cx="194" cy="14" fill="#FEFECE" filter="url(#f18d33cqhd1muv)" rx="8" ry="8" style="stroke:#A80036;stroke-width:1.5;"/><path d="M194,22 L194,49 M181,30 L207,30 M194,49 L181,64 M194,49 L207,64 " fill="none" filter="url(#f18d33cqhd1muv)" style="stroke:#A80036;stroke-width:1.5;"/><text fill="#000000" font-family="sans-serif" font-size="14" lengthAdjust="spacing" textLength="79" x="154.5" y="82.4951">Main Admin</text><ellipse cx="108.228" cy="306.0456" fill="#FEFECE" filter="url(#f18d33cqhd1muv)" rx="85.728" ry="19.5456" style="stroke:#A80036;stroke-width:1.5;"/><text fill="#000000" font-family="sans-serif" font-size="14" lengthAdjust="spacing" textLength="132" x="42.228" y="308.8923">Use the application</text><!--MD5=[fee662a292a0353a69bd162820bae93b]
entity User--><ellipse cx="22" cy="155" fill="#FEFECE" filter="url(#f18d33cqhd1muv)" rx="8" ry="8" style="stroke:#A80036;stroke-width:1.5;"/><path d="M22,163 L22,190 M9,171 L35,171 M22,190 L9,205 M22,190 L35,205 " fill="none" filter="url(#f18d33cqhd1muv)" style="stroke:#A80036;stroke-width:1.5;"/><text fill="#000000" font-family="sans-serif" font-size="14" lengthAdjust="spacing" textLength="32" x="6" y="223.4951">User</text><ellipse cx="107.1191" cy="186.026" fill="#FEFECE" filter="url(#f18d33cqhd1muv)" rx="34.1191" ry="14.526" style="stroke:#A80036;stroke-width:1.5;"/><text fill="#000000" font-family="sans-serif" font-size="14" lengthAdjust="spacing" textLength="32" x="90.6725" y="189.0381">Start</text><!--MD5=[f4b2be5085d6f52f3a0e36c62efcf3ad]
link User to Start--><path d="M38.27,186 C48.1,186 57.93,186 67.76,186 " fill="none" id="User-to-Start" style="stroke:#A80036;stroke-width:1.0;"/><polygon fill="#A80036" points="72.9,186,63.9,182,67.9,186,63.9,190,72.9,186" style="stroke:#A80036;stroke-width:1.0;"/><!--MD5=[9b1e83a301d632e8d5a1d64f176fc1f5]
link User to Use--><path d="M38.18,209.19 C53.41,230.1 76.13,261.27 91.48,282.33 " fill="none" id="User-to-Use" style="stroke:#A80036;stroke-width:1.0;"/><polygon fill="#A80036" points="94.44,286.4,92.3774,276.7696,91.4974,282.3576,85.9094,281.4776,94.44,286.4" style="stroke:#A80036;stroke-width:1.0;"/><!--MD5=[eedd4bf29063d6184eb2b121c1f53f26]
link Admin to Use--><path d="M190.73,85.61 C186.62,123.04 177.71,180.18 159,226.5 C150.77,246.89 136.99,267.65 125.83,282.7 " fill="none" id="Admin-to-Use" style="stroke:#A80036;stroke-width:1.0;"/><polygon fill="#A80036" points="122.76,286.78,131.3709,281.9996,125.7691,282.7869,124.9819,277.185,122.76,286.78" style="stroke:#A80036;stroke-width:1.0;"/></g></svg>